<svg version="1.1" id="Layer_1" xmlns="http://www.w3.org/2000/svg" xmlns:xlink="http://www.w3.org/1999/xlink" x="0px" y="0px"
	 width="100px" height="83.12px" viewBox="0 0 100 83.12" enable-background="new 0 0 100 83.12" xml:space="preserve">
<path fill="#010101" d="M93.611,9.641C82.939,2.092,59.375,0,50,0S17.062,2.092,6.389,9.641
	c-10.671,7.548-7.226,25.061,4.793,22.618c13.534-2.752,16.339-9.518,9.15-16.081c0,0,12.484-5.552,29.668-5.552
	c17.184,0,29.668,5.552,29.668,5.552c-7.188,6.563-4.383,13.329,9.15,16.081C100.838,34.702,104.282,17.188,93.611,9.641z"/>
<path fill="#010101" d="M91.575,61.509c-0.995-8.96-5.53-10.787-12.76-20.712c-6.501-8.927-8.15-15.503-8.787-24.794
	c0,0-2.459-1.167-5.853-1.167c0,0,0.998,10.724-14.177,10.724c-15.176,0-14.178-10.724-14.178-10.724
	c-3.394,0-5.853,1.167-5.853,1.167c-0.636,9.291-2.286,15.867-8.787,24.794C13.953,50.722,9.418,52.549,8.423,61.509
	C6.231,81.25,33.559,83.12,50,83.12l0,0C66.439,83.12,93.77,81.25,91.575,61.509z M50,65.598c-8.93,0-16.17-7.24-16.17-16.17
	c0-8.93,7.24-16.169,16.17-16.169c8.93,0,16.169,7.241,16.169,16.169S58.93,65.598,50,65.598z"/>
</svg>
